<svg xmlns="http://www.w3.org/2000/svg" viewBox="0 0 40 40" height="40" width="40" id="Like--Streamline-Stickies.svg"><desc>Like Streamline Icon: https://streamlinehq.com</desc><g id="Like--Streamline-Stickies.svg"><path d="M37.7 25.89c2.48 -0.77 2.38 -5.75 -0.18 -6.4 1.81 -0.77 0.58 -4.82 -1.55 -5.54a83.33 83.33 0 0 0 -9.32 -0.8 36.54 36.54 0 0 0 1.62 -6 4.1 4.1 0 0 0 -2.18 -4.6c-1.39 -0.82 -3.63 -0.84 -4.51 -0.06 -1.08 0.54 -3.86 3.93 -6.89 9.14a40.16 40.16 0 0 0 -4.78 3.91 7.5 7.5 0 0 0 -4.1 -0.76c-1.89 0 -4.4 0.39 -4.84 2.11 -0.46 0.87 -0.53 5.43 -0.43 9.2s0.43 8.32 1 9.16c0.46 1.75 3 1.91 4.89 1.86 1.45 0 3.25 -0.26 4.22 -1.12a2.48 2.48 0 0 0 0.37 0.29c1.24 0.83 6.82 1.9 11.54 1.77 8.16 -0.23 11.24 -0.88 11.84 -1.07 3.22 -1 2.9 -4.78 2.08 -5.35 1.93 -0.33 2.87 -4.49 1.22 -5.74Z" fill="#ffe236" stroke="#231f20" stroke-miterlimit="10" stroke-width="1"></path><path d="M24.49 4.9c1.37 0.55 1.09 2 0.78 2.88" fill="none" stroke="#ffffff" stroke-linecap="round" stroke-miterlimit="10" stroke-width="1"></path><path d="M10.46 19.71c0.38 1.74 0.83 9.9 0.35 12.38" fill="none" stroke="#231f20" stroke-linecap="round" stroke-miterlimit="10" stroke-width="1"></path><path d="M38.2 18.82c-0.5 0.76 -2.14 0.81 -2.14 0.81a6.11 6.11 0 0 1 2.14 0.17" fill="none" stroke="#231f20" stroke-linecap="round" stroke-linejoin="round" stroke-width="1"></path><path d="M38.52 25.41c-0.38 0.48 -2 0.26 -2 0.26s1.35 0.12 1.75 0.88" fill="none" stroke="#231f20" stroke-linecap="round" stroke-linejoin="round" stroke-width="1"></path><path d="M37.38 31.15a3.08 3.08 0 0 1 -2.45 0.29s1.55 0.19 2 0.91" fill="none" stroke="#231f20" stroke-linecap="round" stroke-linejoin="round" stroke-width="1"></path></g></svg>